<svg width="371" height="362" viewBox="0 0 371 362" fill="none" xmlns="http://www.w3.org/2000/svg">
<mask id="mask0_1041_2595" style="mask-type:luminance" maskUnits="userSpaceOnUse" x="0" y="0" width="371" height="362">
<path d="M0 0H370.413V361.334H0V0Z" fill="white"/>
</mask>
<g mask="url(#mask0_1041_2595)">
<path fill-rule="evenodd" clip-rule="evenodd" d="M148.801 -0.0415039H221.425C228.82 -0.0415039 235.539 2.90204 240.397 7.64902C245.259 12.3919 248.277 18.9381 248.277 26.156V118.961H343.413C350.812 118.961 357.531 121.904 362.385 126.647C367.251 131.394 370.269 137.94 370.269 145.154V215.99C370.269 223.203 367.251 229.758 362.385 234.497C357.523 239.239 350.812 242.183 343.413 242.183H248.277V334.992C248.277 342.205 245.259 348.76 240.397 353.494C235.531 358.241 228.82 361.185 221.425 361.185H148.801C141.406 361.185 134.687 358.241 129.829 353.494C124.967 348.752 121.95 342.205 121.95 334.992V242.191H26.8133C19.414 242.191 12.6948 239.248 7.84125 234.505C2.9835 229.758 -0.0424957 223.212 -0.0424957 215.998V145.162C-0.0424957 137.948 2.975 131.394 7.84125 126.655C12.7033 121.912 19.414 118.969 26.8133 118.969H121.95V26.156C121.95 18.9381 124.967 12.3836 129.829 7.64902C134.687 2.90204 141.406 -0.0415039 148.801 -0.0415039Z" fill="#043873"/>
</g>
</svg>
